<?xml version="1.0" standalone="no"?>
<!DOCTYPE svg PUBLIC "-//W3C//DTD SVG 20010904//EN"
 "http://www.w3.org/TR/2001/REC-SVG-20010904/DTD/svg10.dtd">
<svg version="1.0" xmlns="http://www.w3.org/2000/svg"
 width="512.000000pt" height="512.000000pt" viewBox="0 0 512.000000 512.000000"
 preserveAspectRatio="xMidYMid meet">
<metadata>
Created by potrace 1.11, written by Peter Selinger 2001-2013
</metadata>
<g transform="translate(0.000000,512.000000) scale(0.100000,-0.100000)"
fill="#000000" stroke="none">
<path d="M2477 4694 c-1 -1 -45 -5 -97 -8 -52 -4 -102 -9 -110 -11 -8 -2 -33
-6 -54 -10 -21 -3 -48 -7 -60 -10 -12 -3 -32 -7 -46 -9 -114 -18 -325 -93
-485 -171 -227 -110 -420 -250 -600 -437 -55 -57 -109 -116 -120 -131 -11 -16
-28 -38 -39 -50 -52 -60 -166 -247 -226 -372 -87 -179 -160 -407 -185 -571
-11 -81 -17 -119 -20 -154 -6 -48 -6 -370 -1 -395 2 -11 7 -47 10 -80 4 -33 9
-67 11 -75 2 -8 6 -33 10 -55 3 -22 8 -48 11 -57 3 -9 7 -26 9 -39 2 -12 12
-47 21 -78 10 -31 18 -58 19 -61 3 -16 28 -88 35 -105 5 -11 21 -49 36 -85 65
-161 191 -372 304 -510 76 -93 224 -243 300 -303 36 -28 67 -54 70 -58 3 -3
55 -39 115 -79 187 -124 415 -225 638 -284 115 -31 181 -43 337 -62 51 -6 347
-6 405 1 415 45 807 204 1120 453 210 167 424 420 539 636 14 27 30 54 34 60
18 23 101 226 131 316 32 100 75 286 86 380 4 30 9 66 11 80 6 42 6 352 -1
405 -55 438 -194 785 -444 1110 -50 65 -259 279 -331 339 -79 65 -272 190
-378 245 -141 72 -365 156 -467 175 -11 2 -56 11 -100 20 -104 20 -134 24
-225 32 -68 5 -259 11 -263 8z m305 -1660 c345 -258 627 -471 627 -474 0 -4
-986 -745 -1252 -942 l-23 -17 0 955 c0 650 3 953 10 951 6 -2 293 -215 638
-473z"/>
</g>
</svg>
